<svg width="500" height="500" viewBox="0 0 500 500" fill="none" xmlns="http://www.w3.org/2000/svg">
<rect x="15.5" y="15.5" width="469" height="469" fill="#FF6600" stroke="#F6F6EF" stroke-width="31"/>
<path d="M138.887 346H95.5469L95.8203 314.008H138.887C149.642 314.008 158.711 311.592 166.094 306.762C173.477 301.84 179.036 294.685 182.773 285.297C186.602 275.909 188.516 264.561 188.516 251.254V241.547C188.516 231.339 187.422 222.361 185.234 214.613C183.138 206.866 179.993 200.349 175.801 195.062C171.608 189.776 166.458 185.811 160.352 183.168C154.245 180.434 147.227 179.066 139.297 179.066H94.7266V146.938H139.297C152.604 146.938 164.772 149.216 175.801 153.773C186.921 158.24 196.536 164.665 204.648 173.051C212.76 181.436 219.004 191.462 223.379 203.129C227.845 214.704 230.078 227.602 230.078 241.82V251.254C230.078 265.382 227.845 278.279 223.379 289.945C219.004 301.612 212.76 311.638 204.648 320.023C196.628 328.318 187.012 334.743 175.801 339.301C164.681 343.767 152.376 346 138.887 346ZM118.789 146.938V346H77.7734V146.938H118.789ZM421.895 146.938V346H380.879L300.898 212.562V346H259.883V146.938H300.898L381.016 280.512V146.938H421.895Z" fill="white"/>
</svg>
